<mxfile host="app.diagrams.net" modified="2023-12-10T14:04:24.938Z" agent="Mozilla/5.0 (X11; Linux x86_64) AppleWebKit/537.36 (KHTML, like Gecko) Chrome/120.0.0.0 Safari/537.36" etag="aUzAYxFMyhf5kZ28Q1dr" version="22.1.7" type="device">
  <diagram name="Page-1" id="2UV4jgAbNn9iDZfS4-qV">
    <mxGraphModel dx="703" dy="434" grid="1" gridSize="10" guides="1" tooltips="1" connect="1" arrows="1" fold="1" page="1" pageScale="1" pageWidth="850" pageHeight="1100" math="0" shadow="0">
      <root>
        <mxCell id="0" />
        <mxCell id="1" parent="0" />
        <mxCell id="tlHyxbXIcq6cH7EtfKLw-20" value="" style="group" vertex="1" connectable="0" parent="1">
          <mxGeometry x="340" y="115" width="145.35" height="205" as="geometry" />
        </mxCell>
        <mxCell id="tlHyxbXIcq6cH7EtfKLw-10" value="" style="rounded=0;whiteSpace=wrap;html=1;strokeWidth=3;rotation=-90;" vertex="1" parent="tlHyxbXIcq6cH7EtfKLw-20">
          <mxGeometry x="36.3375" y="30.28071347487694" width="72.675" height="12.112285389950777" as="geometry" />
        </mxCell>
        <mxCell id="tlHyxbXIcq6cH7EtfKLw-9" value="" style="rounded=0;whiteSpace=wrap;html=1;strokeWidth=2;rotation=0;" vertex="1" parent="tlHyxbXIcq6cH7EtfKLw-20">
          <mxGeometry x="36.3375" y="175.62813815428626" width="72.675" height="12.112285389950777" as="geometry" />
        </mxCell>
        <mxCell id="tlHyxbXIcq6cH7EtfKLw-6" value="" style="rounded=0;whiteSpace=wrap;html=1;strokeWidth=3;rotation=75;flipH=0;flipV=1;direction=west;" vertex="1" parent="tlHyxbXIcq6cH7EtfKLw-20">
          <mxGeometry x="24.224999999999998" y="127.17899659448315" width="145.35" height="12.112285389950777" as="geometry" />
        </mxCell>
        <mxCell id="tlHyxbXIcq6cH7EtfKLw-5" value="" style="rounded=0;whiteSpace=wrap;html=1;strokeWidth=3;rotation=-75;" vertex="1" parent="tlHyxbXIcq6cH7EtfKLw-20">
          <mxGeometry x="-26.465812500000027" y="127.17899659448315" width="145.35" height="12.112285389950777" as="geometry" />
        </mxCell>
        <mxCell id="tlHyxbXIcq6cH7EtfKLw-2" value="" style="rounded=0;whiteSpace=wrap;html=1;perimeterSpacing=0;strokeWidth=3;" vertex="1" parent="tlHyxbXIcq6cH7EtfKLw-20">
          <mxGeometry x="12.112499999999999" y="18.168428084926166" width="121.125" height="109.01056850955699" as="geometry" />
        </mxCell>
        <mxCell id="tlHyxbXIcq6cH7EtfKLw-3" value="" style="rounded=0;whiteSpace=wrap;html=1;strokeWidth=3;" vertex="1" parent="tlHyxbXIcq6cH7EtfKLw-20">
          <mxGeometry y="127.17899659448315" width="145.35" height="12.112285389950777" as="geometry" />
        </mxCell>
        <mxCell id="tlHyxbXIcq6cH7EtfKLw-11" value="" style="rounded=0;whiteSpace=wrap;html=1;strokeWidth=3;rotation=-180;" vertex="1" parent="tlHyxbXIcq6cH7EtfKLw-20">
          <mxGeometry x="63.590624999999996" y="6.056142694975389" width="18.16875" height="24.224570779901555" as="geometry" />
        </mxCell>
        <mxCell id="tlHyxbXIcq6cH7EtfKLw-21" value="" style="group" vertex="1" connectable="0" parent="tlHyxbXIcq6cH7EtfKLw-20">
          <mxGeometry x="32.68000000000001" y="62.66999999999999" width="80" height="20" as="geometry" />
        </mxCell>
        <mxCell id="tlHyxbXIcq6cH7EtfKLw-12" value="" style="ellipse;whiteSpace=wrap;html=1;aspect=fixed;strokeWidth=2;" vertex="1" parent="tlHyxbXIcq6cH7EtfKLw-21">
          <mxGeometry x="30" width="20" height="20" as="geometry" />
        </mxCell>
        <mxCell id="tlHyxbXIcq6cH7EtfKLw-13" value="" style="curved=1;endArrow=none;html=1;rounded=0;endFill=0;strokeWidth=2;" edge="1" parent="tlHyxbXIcq6cH7EtfKLw-21">
          <mxGeometry width="50" height="50" relative="1" as="geometry">
            <mxPoint x="30" y="30" as="sourcePoint" />
            <mxPoint x="30" y="-10" as="targetPoint" />
            <Array as="points">
              <mxPoint x="20" y="20" />
              <mxPoint x="20" />
            </Array>
          </mxGeometry>
        </mxCell>
        <mxCell id="tlHyxbXIcq6cH7EtfKLw-14" value="" style="curved=1;endArrow=none;html=1;rounded=0;endFill=0;strokeWidth=2;" edge="1" parent="tlHyxbXIcq6cH7EtfKLw-21">
          <mxGeometry width="50" height="50" relative="1" as="geometry">
            <mxPoint x="50" y="-10" as="sourcePoint" />
            <mxPoint x="50" y="30" as="targetPoint" />
            <Array as="points">
              <mxPoint x="60" />
              <mxPoint x="60" y="20" />
            </Array>
          </mxGeometry>
        </mxCell>
        <mxCell id="tlHyxbXIcq6cH7EtfKLw-15" value="" style="curved=1;endArrow=none;html=1;rounded=0;endFill=0;strokeWidth=2;" edge="1" parent="tlHyxbXIcq6cH7EtfKLw-21">
          <mxGeometry width="50" height="50" relative="1" as="geometry">
            <mxPoint x="20" y="30" as="sourcePoint" />
            <mxPoint x="20" y="-10" as="targetPoint" />
            <Array as="points">
              <mxPoint x="10" y="20" />
              <mxPoint x="10" />
            </Array>
          </mxGeometry>
        </mxCell>
        <mxCell id="tlHyxbXIcq6cH7EtfKLw-16" value="" style="curved=1;endArrow=none;html=1;rounded=0;endFill=0;strokeWidth=2;" edge="1" parent="tlHyxbXIcq6cH7EtfKLw-21">
          <mxGeometry width="50" height="50" relative="1" as="geometry">
            <mxPoint x="60" y="-10" as="sourcePoint" />
            <mxPoint x="60" y="30" as="targetPoint" />
            <Array as="points">
              <mxPoint x="70" />
              <mxPoint x="70" y="20" />
            </Array>
          </mxGeometry>
        </mxCell>
        <mxCell id="tlHyxbXIcq6cH7EtfKLw-17" value="" style="curved=1;endArrow=none;html=1;rounded=0;endFill=0;strokeWidth=2;" edge="1" parent="tlHyxbXIcq6cH7EtfKLw-21">
          <mxGeometry width="50" height="50" relative="1" as="geometry">
            <mxPoint x="70" y="-10" as="sourcePoint" />
            <mxPoint x="70" y="30" as="targetPoint" />
            <Array as="points">
              <mxPoint x="80" />
              <mxPoint x="80" y="20" />
            </Array>
          </mxGeometry>
        </mxCell>
        <mxCell id="tlHyxbXIcq6cH7EtfKLw-19" value="" style="curved=1;endArrow=none;html=1;rounded=0;endFill=0;strokeWidth=2;" edge="1" parent="tlHyxbXIcq6cH7EtfKLw-21">
          <mxGeometry width="50" height="50" relative="1" as="geometry">
            <mxPoint x="10" y="30" as="sourcePoint" />
            <mxPoint x="10" y="-10" as="targetPoint" />
            <Array as="points">
              <mxPoint y="20" />
              <mxPoint />
            </Array>
          </mxGeometry>
        </mxCell>
      </root>
    </mxGraphModel>
  </diagram>
</mxfile>
